<?xml version="1.0" encoding="UTF-8" standalone="no"?>
<!-- Uploaded to: SVG Repo, www.svgrepo.com, Transformed by: SVG Repo Mixer Tools -->

<svg
   fill="#000000"
   version="1.1"
   id="Layer_1"
   viewBox="0 0 12.72 30.72"
   xml:space="preserve"
   width="318"
   height="768"
   xmlns="http://www.w3.org/2000/svg"
   xmlns:svg="http://www.w3.org/2000/svg"><defs
   id="defs1" />





<path
   id="baby--bottle_1_"
   d="M 6.36,0 C 5.6100008,0 5,0.61000075 5,1.36 V 3.2320312 C 3.3350017,3.7780307 2.1589999,5.2670017 2.015,7 H 1.36 C 1.1610002,7 1,7.1610002 1,7.36 v 3 c 0,0.199 0.1610002,0.36 0.36,0.36 H 1.6870312 L 1.0679688,11.648984 C 0.36896945,12.696983 0,13.917033 0,15.177031 V 28.36 c 0,1.300999 1.0590013,2.36 2.36,2.36 h 8 c 1.301999,0 2.36,-1.058001 2.36,-2.36 V 15.177031 c 0,-1.258998 -0.369969,-2.480048 -1.067969,-3.528047 L 11.032969,10.72 H 11.36 c 0.199,0 0.36,-0.161 0.36,-0.36 v -3 C 11.72,7.1610002 11.559,7 11.36,7 H 10.703984 C 10.560985,5.2670017 9.3849983,3.7780307 7.72,3.2320312 V 1.36 C 7.72,0.61000075 7.1099992,0 6.36,0 Z m 0,0.72 C 6.7129996,0.72 7,1.0070004 7,1.36 V 3.5010156 C 7,3.6650155 7.1110002,3.809 7.27,3.85 8.7589985,4.2349996 9.8330314,5.5030015 9.9820313,7 H 2.7379687 C 2.8869686,5.5030015 3.9610015,4.2350152 5.45,3.8510156 5.6089998,3.8100157 5.72,3.6660311 5.72,3.5020312 V 1.36 c 0,-0.3529996 0.2870004,-0.64 0.64,-0.64 z m -4.64,7 H 11 V 10 H 1.72 Z m 0.8329688,3 h 7.6150002 l 0.885,1.327969 C 11.672968,12.977968 12,14.060032 12,15.177031 V 28.36 C 12,29.264999 11.263999,30 10.36,30 h -8 C 1.4560009,30 0.72,29.263999 0.72,28.36 v -1.64 l 2.64,0.001 V 26 H 0.72 V 23.721016 H 3.36 V 23 H 0.72 V 20.721016 H 3.36 V 20 H 0.72 V 17.721016 H 3.36 V 17 H 0.72 v -1.822969 c 0,-1.116999 0.3270319,-2.199063 0.9470312,-3.129062 z" />

</svg>
