<?xml version="1.0" encoding="iso-8859-1"?>
<!-- Uploaded to: SVG Repo, www.svgrepo.com, Generator: SVG Repo Mixer Tools -->
<svg fill="#000000" height="800px" width="800px" version="1.1" id="Layer_1" xmlns="http://www.w3.org/2000/svg" xmlns:xlink="http://www.w3.org/1999/xlink" 
	 viewBox="0 0 511.997 511.997" xml:space="preserve">
<g>
	<g>
		<path d="M426.661,341.33c-15.825,0-30.632,4.323-43.336,11.828L268.927,238.76c30.497-40.678,37.526-93.372,21.084-139.591
			l0.482-0.482l-3.674-7.707c-6.478-15.281-15.618-29.7-27.418-42.554c-0.082-0.089-0.165-0.178-0.247-0.267
			c-1.378-1.494-2.782-2.973-4.232-4.423c-1.442-1.442-2.913-2.838-4.398-4.209c-0.114-0.105-0.227-0.211-0.341-0.316
			c-12.842-11.779-27.243-20.902-42.505-27.372l-7.707-3.674l-0.482,0.482C146.872-10.072,85.855,1.62,43.739,43.736
			S-10.07,146.87,8.649,199.487l-0.49,0.49l3.775,7.92c6.434,15.108,15.471,29.37,27.114,42.105c0.255,0.28,0.516,0.557,0.774,0.835
			c1.129,1.217,2.278,2.422,3.455,3.609c0.155,0.157,0.301,0.321,0.457,0.477s0.321,0.302,0.477,0.457
			c1.188,1.177,2.393,2.326,3.609,3.455c0.279,0.258,0.555,0.518,0.835,0.774c12.735,11.643,26.996,20.68,42.105,27.114l7.92,3.775
			l0.49-0.49c46.217,16.442,98.908,9.413,139.586-21.08l114.399,114.399c-7.505,12.703-11.828,27.511-11.828,43.336
			c0,47.131,38.202,85.333,85.333,85.333s85.333-38.202,85.333-85.333S473.793,341.33,426.661,341.33z M77.822,228.472
			c-0.02-0.018-0.039-0.036-0.058-0.054c-1.203-1.086-2.377-2.208-3.532-3.352c-0.107-0.106-0.217-0.209-0.324-0.316
			s-0.209-0.216-0.316-0.324c-1.145-1.155-2.267-2.328-3.352-3.532c-0.018-0.02-0.036-0.039-0.054-0.058
			c-3.593-3.989-6.862-8.243-9.806-12.742l147.71-147.71c6.014,3.931,11.579,8.437,16.641,13.51
			c5.092,5.082,9.606,10.655,13.54,16.672l-147.71,147.71C86.064,235.334,81.811,232.064,77.822,228.472z M73.908,73.906
			c24.67-24.67,58.42-34.726,90.495-30.173L43.735,164.401C39.182,132.326,49.238,98.576,73.908,73.906z M134.257,254.923
			l120.667-120.667c4.553,32.074-5.503,65.824-30.173,90.494C200.082,249.42,166.332,259.476,134.257,254.923z M426.661,469.33
			c-23.567,0-42.667-19.099-42.667-42.667s19.099-42.667,42.667-42.667s42.667,19.099,42.667,42.667S450.229,469.33,426.661,469.33z
			"/>
	</g>
</g>
</svg>